:SAMPLES-PER-SECOND 30
:FULLY-SPECIFIED
:DEGREES
497
root  -15.3683 34.7253 -8.4255 -169.947 -0.0405884 179.71
RightUpLeg  -9.42547 -10.1304 1.71955
RightLeg  5.5704 2.23034 0.0745461
RightFoot  3.803 0.00391128 0.268973
RightToes  -23.7558 -0.10987 -0.214334
Spine  -2.30185 0.330081 -0.297485
Spine1  -4.68303 0.759572 0.0428751
HEad  -66.3296 -0.582792 6.60516
LeftShoulder1  -1.94126e-019 -3.10601e-018 -2.51263e-017
LeftArm  -10.1946 24.6757 -82.2892
LeftForeArm  31.2411 -17.7017 -2.89921
LeftHand  -0.495381 -2.61652 7.40337
RightShoulder  -4.96962e-017 0 -2.36833e-017
RightArm  -21.0269 -23.0677 79.7283
RightForeArm  54.615 14.7912 1.17715
RightHand  -0.50033 -0.582454 -12.1602
LeftUpLeg  -9.42213 -5.95635 -0.951505
LeftLeg  6.59875 13.1795 0.664705
LeftFoot  2.92023 -0.0207456 0.838746
LeftToes  -14.6663 1.31424e-006 1.14295e-007
498
root  -15.3693 34.7252 -8.43022 -169.95 -0.0397644 179.71
RightUpLeg  -9.40229 -10.135 1.71673
RightLeg  5.53881 2.23756 0.073547
RightFoot  3.81328 0.00395231 0.268387
RightToes  -23.7412 -0.10987 -0.214334
Spine  -2.31258 0.336557 -0.293298
Spine1  -4.70409 0.772827 0.0514938
HEad  -66.3999 -0.610887 6.60168
LeftShoulder1  -1.94126e-019 -3.10601e-018 -2.51263e-017
LeftArm  -10.1442 24.6562 -82.279
LeftForeArm  31.2012 -17.7824 -2.91302
LeftHand  -0.499549 -2.5944 7.33157
RightShoulder  -4.96962e-017 0 -2.36833e-017
RightArm  -20.987 -23.06 79.7103
RightForeArm  54.6633 14.805 1.17464
RightHand  -0.501491 -0.570657 -12.1294
LeftUpLeg  -9.40113 -5.9449 -0.954916
LeftLeg  6.57047 13.1655 0.657561
LeftFoot  2.93577 -0.0207497 0.83881
LeftToes  -14.7301 1.31424e-006 1.14295e-007
499
root  -15.3712 34.725 -8.43574 -169.957 -0.0492706 179.71
RightUpLeg  -9.37867 -10.1084 1.70743
RightLeg  5.52618 2.18238 0.0712753
RightFoot  3.81653 0.00400605 0.267619
RightToes  -23.7833 -0.10987 -0.214334
Spine  -2.32136 0.34415 -0.285279
Spine1  -4.72141 0.789143 0.0672599
HEad  -66.6192 -0.56466 6.6317
LeftShoulder1  -1.94126e-019 -3.10601e-018 -2.51263e-017
LeftArm  -10.1357 24.5972 -82.2621
LeftForeArm  31.2289 -17.9364 -2.93571
LeftHand  -0.50148 -2.60362 7.3952
RightShoulder  -4.96962e-017 0 -2.36833e-017
RightArm  -20.9821 -23.0291 79.6852
RightForeArm  54.5767 14.8593 1.16998
RightHand  -0.503652 -0.544444 -12.0721
LeftUpLeg  -9.37927 -5.94717 -0.959989
LeftLeg  6.55826 13.1607 0.654538
LeftFoot  2.92879 -0.0206513 0.837281
LeftToes  -14.6925 1.31424e-006 1.14295e-007
500
root  -15.3728 34.7249 -8.43954 -169.964 -0.0549774 179.709
RightUpLeg  -9.36299 -10.0789 1.70004
RightLeg  5.52589 2.15323 0.0703256
RightFoot  3.80732 0.00414319 0.26566
RightToes  -23.7611 -0.10987 -0.214334
Spine  -2.32613 0.346326 -0.277848
Spine1  -4.731 0.790337 0.081792
HEad  -66.7341 -0.51464 6.63293
LeftShoulder1  -1.94126e-019 -3.10601e-018 -2.51263e-017
LeftArm  -10.1579 24.5642 -82.2517
LeftForeArm  31.1448 -18.0529 -2.95287
LeftHand  -0.504957 -2.60606 7.3816
RightShoulder  -4.96962e-017 0 -2.36833e-017
RightArm  -20.9878 -22.9946 79.666
RightForeArm  54.5169 14.9131 1.16495
RightHand  -0.503068 -0.47706 -12.0965
LeftUpLeg  -9.36969 -5.9373 -0.964854
LeftLeg  6.56405 13.1489 0.656286
LeftFoot  2.91019 -0.0203348 0.832361
LeftToes  -14.6717 1.31424e-006 1.14295e-007
501
root  -15.3732 34.7247 -8.44395 -169.973 -0.0752869 179.707
RightUpLeg  -9.35138 -10.0585 1.6917
RightLeg  5.54305 2.1195 0.0735725
RightFoot  3.78835 0.00424016 0.264274
RightToes  -23.7556 -0.10987 -0.214334
Spine  -2.32784 0.346621 -0.269168
Spine1  -4.73446 0.791751 0.0984598
HEad  -66.8625 -0.485046 6.67394
LeftShoulder1  -1.94126e-019 -3.10601e-018 -2.51263e-017
LeftArm  -10.164 24.5369 -82.2517
LeftForeArm  31.1291 -18.161 -2.96807
LeftHand  -0.508203 -2.59578 7.36752
RightShoulder  -4.96962e-017 0 -2.36833e-017
RightArm  -21.0068 -22.9691 79.6411
RightForeArm  54.4704 14.9458 1.16227
RightHand  -0.501093 -0.577591 -12.1379
LeftUpLeg  -9.36709 -5.93316 -0.969542
LeftLeg  6.58678 13.1218 0.661675
LeftFoot  2.90316 -0.020161 0.82966
LeftToes  -14.7219 1.31424e-006 1.14295e-007
502
root  -15.3732 34.7245 -8.44746 -169.981 -0.0923004 179.704
RightUpLeg  -9.33808 -10.0654 1.68637
RightLeg  5.54635 2.10572 0.0755116
RightFoot  3.78333 0.0043258 0.263051
RightToes  -23.7757 -0.10987 -0.214334
Spine  -2.33046 0.345472 -0.262738
Spine1  -4.74056 0.792995 0.111008
HEad  -66.9574 -0.503253 6.71566
LeftShoulder1  -1.94126e-019 -3.10601e-018 -2.51263e-017
LeftArm  -10.1748 24.5244 -82.2516
LeftForeArm  31.0444 -18.238 -2.97993
LeftHand  -0.51073 -2.51502 7.33835
RightShoulder  -4.96962e-017 0 -2.36833e-017
RightArm  -21.0274 -22.9607 79.6326
RightForeArm  54.463 14.968 1.15997
RightHand  -0.501107 -0.599663 -12.1336
LeftUpLeg  -9.36568 -5.95376 -0.973097
LeftLeg  6.60836 13.1171 0.663794
LeftFoot  2.89415 -0.0199884 0.826978
LeftToes  -14.7778 1.31424e-006 1.14295e-007
503
root  -15.3728 34.7242 -8.44905 -169.984 -0.0947571 179.701
RightUpLeg  -9.3343 -10.0764 1.68365
RightLeg  5.5496 2.11019 0.0758358
RightFoot  3.77405 0.00440182 0.261965
RightToes  -23.7385 -0.10987 -0.214334
Spine  -2.333 0.343318 -0.260299
Spine1  -4.74483 0.792382 0.115738
HEad  -66.9798 -0.512394 6.74348
LeftShoulder1  -1.94126e-019 -3.10601e-018 -2.51263e-017
LeftArm  -10.1972 24.5269 -82.2539
LeftForeArm  31.029 -18.2676 -2.98415
LeftHand  -0.513528 -2.46206 7.29368
RightShoulder  -4.96962e-017 0 -2.36833e-017
RightArm  -21.0464 -22.9622 79.6314
RightForeArm  54.4405 14.9787 1.15927
RightHand  -0.502785 -0.60482 -12.0844
LeftUpLeg  -9.36611 -5.94918 -0.973921
LeftLeg  6.619 13.1054 0.66563
LeftFoot  2.87604 -0.0196769 0.822135
LeftToes  -14.6591 1.31424e-006 1.14295e-007
